<svg width="19" height="16" viewBox="0 0 19 16" fill="none" xmlns="http://www.w3.org/2000/svg">
<g id="gift">
<path id="icon" fill-rule="evenodd" clip-rule="evenodd" d="M14.1299 7.41071H12.3221C11.9313 7.41071 11.614 7.69454 11.614 8.04568C11.614 8.39682 11.9313 8.68066 12.3221 8.68066H13.3219V12.7223C13.3219 12.928 13.1279 13.1026 12.8985 13.1026H11.1014V6.06646H14.1299V7.41071ZM8.8787 13.1026H10.2517V6.06646H8.8787V13.1026ZM8.02899 13.1026H6.23187C5.9982 13.1026 5.80843 12.9318 5.80843 12.7223V8.68066H6.83303C7.22461 8.68066 7.54112 8.39682 7.54112 8.04568C7.54112 7.69454 7.22461 7.41071 6.83303 7.41071H5.0005V6.06646H8.02899V13.1026ZM5.96704 3.42115C5.93872 3.17224 6.03431 2.92269 6.22408 2.75252C6.44925 2.54996 6.68717 2.44963 6.94987 2.44963C7.15521 2.44963 7.37614 2.51059 7.61689 2.63441C8.12742 2.89539 8.55723 3.83071 8.79373 4.59141C7.93057 4.51077 6.8564 4.35393 6.50377 4.14502C6.10087 3.90627 5.98899 3.61989 5.96704 3.42115ZM11.5135 2.63441C11.755 2.51122 11.9752 2.44963 12.1805 2.44963C12.4432 2.44963 12.6818 2.55059 12.907 2.75252C13.0961 2.92269 13.1917 3.17224 13.164 3.42178C13.1414 3.61989 13.0295 3.90627 12.6266 4.14502C12.274 4.35393 11.1998 4.5114 10.3359 4.59204C10.5724 3.83134 11.0023 2.89602 11.5135 2.63441ZM14.2028 4.79651H13.0621C13.0713 4.79079 13.0854 4.78698 13.0947 4.78127C13.6264 4.46632 13.9514 4.01104 14.0095 3.49861C14.0626 3.02429 13.8757 2.54424 13.5082 2.21406C12.8327 1.60702 11.9745 1.52066 11.0929 1.97213C10.2963 2.37978 9.81125 3.4929 9.56554 4.24027C9.31913 3.4929 8.83409 2.37978 8.03749 1.97213C7.15592 1.52193 6.29772 1.60765 5.62291 2.21406C5.25541 2.54424 5.06777 3.02429 5.12159 3.49861C5.17965 4.01104 5.50395 4.46632 6.03573 4.78127C6.04493 4.78698 6.0598 4.79079 6.06901 4.79651H4.92757C4.18691 4.79651 3.58433 5.33687 3.58433 6.00106V7.47611C3.58433 8.00949 3.97661 8.45842 4.51405 8.61589V12.7223C4.51405 13.5719 5.28445 14.2634 6.23187 14.2634H12.8985C13.8459 14.2634 14.6163 13.5719 14.6163 12.7223V8.61589C15.1545 8.45842 15.5461 8.00949 15.5461 7.47611V6.00106C15.5461 5.33687 14.9435 4.79651 14.2028 4.79651Z" fill="black"/>
</g>
</svg>
