<svg width="16" height="12" viewBox="0 0 16 12" fill="none" xmlns="http://www.w3.org/2000/svg">
<path id="icon" fill-rule="evenodd" clip-rule="evenodd" d="M10.412 5.19459C10.692 5.35367 10.7521 5.65671 10.5433 5.87144C10.4199 5.99967 10.2285 6.06681 10.0339 6.06742C9.90335 6.06742 9.77125 6.03657 9.65814 5.97185C8.75401 5.45953 7.55088 5.543 6.91411 5.63917C6.57002 5.69058 6.23858 5.51941 6.17135 5.2575C6.10411 4.99499 6.32718 4.74094 6.67048 4.68953C7.51212 4.56372 9.11708 4.46089 10.412 5.19459ZM5.12167 5.8539C5.12167 6.11036 4.84877 6.31844 4.51417 6.31844C4.17879 6.31844 3.90589 6.11036 3.90589 5.8539C3.90589 5.59925 4.17483 5.3821 4.51417 5.3821C4.85273 5.3821 5.12167 5.59925 5.12167 5.8539ZM11.4664 9.06997C11.4529 9.07723 11.4474 9.08812 11.4355 9.09598C11.4023 9.11776 11.377 9.14195 11.3501 9.16856C11.3256 9.19276 11.3019 9.21635 11.2845 9.24357C11.2663 9.27018 11.256 9.2974 11.2457 9.32644C11.233 9.3591 11.2228 9.39055 11.2196 9.42503C11.2188 9.43652 11.2109 9.4468 11.2109 9.4583V10.5023C11.2109 10.6608 11.0424 10.7896 10.8352 10.7896C10.6279 10.7896 10.4602 10.6608 10.4602 10.5023V10.1847C10.4602 10.0317 10.3653 9.88775 10.2055 9.79642C10.0449 9.70508 9.83928 9.67665 9.64627 9.72081C9.56954 9.73835 9.49123 9.75529 9.41213 9.77041L9.11075 9.82424C8.02153 9.99905 6.82868 9.96941 5.76635 9.73956C5.5947 9.70206 5.40881 9.72202 5.25694 9.79521C5.10506 9.869 5.00065 9.98755 4.97059 10.1224L4.90335 10.42C4.89703 10.4473 4.89386 10.4745 4.89386 10.5023C4.89386 10.6608 4.72617 10.7896 4.50864 10.7896C4.30139 10.7896 4.1337 10.6608 4.1337 10.5023V9.42926C4.1337 9.24417 3.9929 9.08933 3.79435 9.00767C3.77774 8.99557 3.76904 8.97924 3.75006 8.96775C3.34585 8.72157 3.01837 8.44212 2.77711 8.13666C2.74072 8.09069 2.70592 8.04351 2.67349 7.99573C2.65925 7.97516 2.63552 7.96186 2.61812 7.94371C2.59201 7.91528 2.56828 7.88685 2.53427 7.86387C2.50421 7.84209 2.4694 7.82818 2.4346 7.81185C2.3998 7.79612 2.36815 7.77919 2.3294 7.7683C2.28747 7.7562 2.24476 7.75318 2.19967 7.74834C2.16961 7.74471 2.14351 7.73443 2.11187 7.73443H1.44742V6.68438H1.80891L1.81286 6.68377C1.88959 6.68377 1.96236 6.67047 2.03277 6.6499C2.05887 6.64264 2.08102 6.63115 2.10554 6.62087C2.14746 6.60333 2.18701 6.58458 2.22182 6.56038C2.24555 6.54466 2.26453 6.52832 2.2851 6.51078C2.31437 6.48417 2.3381 6.45634 2.35945 6.4255C2.37527 6.40433 2.38872 6.38316 2.3998 6.35957C2.40454 6.34868 2.41562 6.33961 2.41957 6.32751C2.46624 6.19383 2.5311 6.06016 2.61021 5.93011C2.74151 5.7172 2.91633 5.51094 3.17103 5.2823L3.16629 5.27928C3.262 5.19459 3.32528 5.08753 3.32528 4.96656V3.26144C3.77062 3.30439 4.32987 3.43322 4.49124 3.78526C4.49598 3.82639 4.49598 3.86752 4.51497 3.90804C4.63283 4.15906 4.99511 4.28911 5.32496 4.19898L5.48 4.15785C5.50057 4.15301 5.59233 4.12942 5.61289 4.12338C6.40153 3.87538 7.20362 3.74594 7.9804 3.72416C8.4732 4.1766 9.20647 4.47178 10.0347 4.47178C10.4001 4.47178 10.7489 4.41432 11.0669 4.3127C11.1009 4.32903 11.1381 4.34234 11.1721 4.35988C12.3405 4.95809 13.0112 5.88959 13.0112 6.91483C13.0112 7.72717 12.448 8.51289 11.4664 9.06997ZM10.0347 1.21397C10.904 1.21397 11.6111 1.75472 11.6111 2.41947C11.6111 3.08361 10.904 3.62436 10.0347 3.62436C9.16534 3.62436 8.45817 3.08361 8.45817 2.41947C8.45817 1.75472 9.16534 1.21397 10.0347 1.21397ZM15.4064 5.37666C15.0845 5.3573 14.7641 5.55147 14.7246 5.81156C14.719 5.84906 14.6605 6.10189 14.2041 6.28275C13.9897 5.25811 13.2604 4.34657 12.1206 3.69453C12.4892 3.34249 12.7186 2.90336 12.7186 2.41947C12.7186 1.28776 11.5146 0.367157 10.0347 0.367157C8.55467 0.367157 7.35075 1.28776 7.35075 2.41947C7.35075 2.54709 7.37053 2.67049 7.39979 2.79146C6.76224 2.84529 6.11677 2.95719 5.48079 3.13442C4.84086 2.37229 3.45105 2.22591 2.64343 2.27732C2.31437 2.29668 2.05966 2.50717 2.05966 2.7594V4.80083C1.82473 5.02826 1.61906 5.26718 1.46403 5.51941C1.42527 5.58413 1.40312 5.65127 1.3691 5.7172H0.814604C0.465767 5.7172 0.181793 5.93374 0.181793 6.20109V8.21832C0.181793 8.48567 0.465767 8.70221 0.814604 8.70221H1.75749C2.047 9.05243 2.42036 9.37241 2.86808 9.6573V10.5023C2.86808 11.1943 3.60451 11.7568 4.51892 11.7568C5.29174 11.7568 5.94195 11.3461 6.1144 10.7951C7.13085 10.942 8.22086 10.9414 9.2389 10.7914C9.40976 11.3443 10.0608 11.7568 10.8352 11.7568C11.7401 11.7568 12.4757 11.1943 12.4757 10.5023V9.68573C13.4772 9.04699 14.1036 8.20622 14.2444 7.30558C15.889 6.93903 15.9839 5.92285 15.987 5.87507C16.0044 5.61437 15.7474 5.39843 15.4064 5.37666Z" fill="black"/>
</svg>
