<svg width="101" height="133" viewBox="0 0 101 133" fill="none" xmlns="http://www.w3.org/2000/svg">
<g id="Group">
<path id="Vector" d="M85.1045 0.414551C82.1594 1.03456 80.0513 1.99559 77.5093 3.79362L75.2772 5.40567L73.5102 5.09566C70.0381 4.47565 65.791 5.87068 63.1249 8.53674C56.6768 14.9849 59.1879 26.0522 67.7751 28.9042L69.2941 29.4312V36.9644V44.4976L67.9301 46.6986C66.442 49.1167 65.171 52.6818 64.675 55.7509C64.21 58.4479 64.241 66.9421 64.675 67.9341C65.481 69.6392 68.1471 69.6392 68.9531 67.9341C69.1701 67.4691 69.2941 65.2061 69.2941 62.106C69.2941 58.1069 69.4181 56.5569 69.9141 54.6658C71.7121 47.5667 77.2613 42.0175 84.3604 40.2195C94.8387 37.5224 105.658 44.0636 108.355 54.6658C108.913 56.7739 108.975 58.1069 108.975 65.7641V74.4753H88.8866C69.0461 74.4753 68.7981 74.4753 66.659 75.1573C62.8149 76.3663 59.0018 79.3424 57.0178 82.6905L56.1188 84.2405H52.5847C50.6627 84.2405 48.5236 84.0855 47.8726 83.8685C46.3535 83.4345 44.3385 81.7295 43.5945 80.2414C43.2535 79.6214 42.3545 75.8393 41.5484 71.8402C40.7424 67.8411 39.8434 64.0591 39.5334 63.439C38.9134 62.23 37.1463 60.525 36.1853 60.246C35.6583 60.06 35.5963 59.7499 35.6273 57.3319C35.6583 55.0688 35.5343 54.4178 34.9143 53.2398C33.7673 51.0387 33.0852 50.4497 31.7212 50.4497C29.3961 50.4497 28.5901 52.5268 30.0782 54.7278C30.9772 56.0609 31.0702 57.5799 30.3572 58.8199C28.9001 61.269 25.3661 61.269 23.909 58.8199C23.134 57.4869 23.289 55.9989 24.343 54.5418C26.1411 52.0308 25.149 49.8297 22.328 50.1397C20.0339 50.3567 17.8329 55.7198 18.7319 58.9749C19.4759 61.827 22.297 64.7411 24.746 65.2371C25.5211 65.3921 25.5831 65.5161 25.5831 66.8801C25.5831 68.8952 27.3501 80.8924 27.9391 83.0005C30.0472 90.3477 36.3403 96.4858 43.7185 98.3459C46.5706 99.0589 48.0276 98.9659 48.8026 98.0048C50.3216 96.0828 49.3296 94.6878 45.8885 93.8507C42.1064 92.8897 39.7194 91.5877 37.1773 89.0766C33.4572 85.3876 32.7132 83.4345 31.3182 73.8863C30.2022 66.4151 30.2332 65.7951 31.5352 64.8961C32.5582 64.1831 33.5192 64.2761 34.5423 65.2371C35.3483 66.0431 35.5343 66.6631 36.8673 73.3283C38.4484 81.3265 39.0994 83.0935 41.2074 85.2635C43.8735 88.0226 47.0356 89.2006 51.7787 89.2006H54.5687L54.5997 92.7037C54.6617 100.516 57.0178 107.615 62.0089 114.931C66.566 121.596 68.7981 127.549 69.1701 133.966C69.5111 139.918 70.3481 142.367 72.9832 145.002C76.2693 148.288 78.1603 148.722 89.0416 148.722C97.7838 148.722 99.7678 148.505 102 147.389C106.65 145.064 108.51 141.716 109.006 134.927C109.347 130.246 110.091 126.774 111.579 123.177C112.819 120.232 113.656 118.744 116.57 114.466C121.22 107.646 123.607 100.33 123.669 92.7037L123.7 89.2006H127.11C132.598 89.2006 135.853 90.3477 139.077 93.4477C140.038 94.3468 141.278 95.9278 141.805 96.9198C143.479 100.082 143.696 101.539 143.696 109.909V117.442L142.921 118.186C142.022 119.116 140.627 119.178 139.635 118.372C138.891 117.783 138.891 117.659 138.705 110.839C138.519 103.027 138.209 101.725 135.977 98.8729C133.528 95.8038 130.955 94.8118 129.529 96.4548C128.35 97.8498 128.567 98.6559 130.707 100.609C133.528 103.213 133.59 103.368 133.776 111.521C133.931 117.876 133.993 118.62 134.613 119.736C135.264 120.976 136.566 122.34 137.589 122.898C138.054 123.146 137.868 123.332 136.504 124.231C132.815 126.65 131.575 131.331 133.528 135.206C134.458 137.066 135.45 137.872 136.721 137.872C138.953 137.872 139.728 135.733 138.271 133.594C137.372 132.261 137.279 130.742 137.992 129.502C139.449 127.053 142.983 127.053 144.44 129.502C145.215 130.835 145.06 132.323 144.006 133.78C142.208 136.291 143.2 138.492 146.021 138.182C146.858 138.089 147.633 137.376 148.563 135.764C150.919 131.734 149.803 126.774 145.928 124.231C144.564 123.332 144.378 123.146 144.843 122.898C145.866 122.34 147.168 120.976 147.819 119.736C148.47 118.589 148.501 118 148.594 110.591C148.687 102.159 148.501 100.237 147.106 96.5788C146.176 94.0988 143.603 90.5957 141.371 88.7976C137.31 85.5116 133.094 84.2405 126.273 84.2405H122.15L121.22 82.6905C120.042 80.6754 117.5 78.1334 115.485 76.9554L113.935 76.0253V66.8801C113.935 61.858 113.78 56.8359 113.594 55.7509C113.098 52.6818 111.827 49.1167 110.339 46.6986L108.975 44.4976V36.9644V29.4312L110.494 28.9042C119.05 26.0832 121.592 14.9849 115.175 8.56773C112.416 5.80867 108.138 4.41364 104.635 5.09566L102.93 5.43666L101.411 4.19664C96.9777 0.693558 90.6226 -0.794479 85.1045 0.414551ZM94.1567 5.71567C97.3498 6.89369 100.481 9.52876 102 12.4118C103.209 14.6749 103.953 15.4189 105.007 15.4189C106.278 15.4189 106.991 14.9539 107.363 13.9309C107.642 13.0938 107.518 12.4118 106.65 10.3348C106.402 9.77676 106.495 9.74577 107.704 9.96277C109.409 10.2108 110.463 10.7688 111.734 12.0708C113.129 13.4659 113.656 14.5819 113.842 16.4729C114.09 18.953 113.501 20.596 111.641 22.4251C108.634 25.4631 105.007 25.5561 101.349 22.7041C99.3648 21.154 99.1168 21.092 97.8148 21.774C96.7607 22.3011 96.3577 23.4791 96.7607 24.6571C97.1637 25.8351 99.9848 27.9742 102.124 28.7802L104.015 29.4622V34.5154V39.5685L101.845 38.2354C99.1788 36.5614 95.3967 35.3214 91.8316 34.8564C86.8095 34.2363 80.7644 35.5384 76.4243 38.2354L74.2542 39.5685V29.5242C74.2542 22.7041 74.1302 19.232 73.9132 18.705C73.4172 17.6199 72.0222 17.0929 70.8751 17.558C69.6661 18.085 69.2941 19.077 69.2941 21.9601V24.4401L68.4261 23.9751C67 23.2311 65.016 20.875 64.644 19.387C64.21 17.806 64.396 15.2329 65.047 13.9619C65.636 12.8148 67.31 11.1718 68.4881 10.5518C70.9681 9.24976 74.8432 9.93178 76.9203 12.0088C78.3153 13.3728 78.8423 14.3649 79.0903 16.0699C79.3693 18.178 79.8033 19.046 80.7954 19.449C82.0044 19.976 83.3684 19.387 83.8644 18.178C84.6395 16.3489 83.3994 12.1018 81.3224 9.49776C80.3303 8.22673 80.1753 7.85472 80.4854 7.60672C81.7564 6.7697 84.2054 5.65367 85.5695 5.31267C87.7395 4.72365 91.9866 4.94066 94.1567 5.71567ZM110.246 79.9004C113.997 81.0785 117.159 84.2715 118.337 88.0846C118.895 89.9447 118.957 90.6887 118.802 93.6647C118.43 100.299 116.229 106.282 111.672 112.978C108.975 116.915 108.107 118.589 106.619 122.371C105.317 125.751 104.418 130.215 104.046 134.958C103.891 137.19 103.581 139.05 103.302 139.608C102.589 141.003 100.202 143.049 98.8688 143.421C97.3187 143.855 81.0124 143.855 79.4933 143.452C78.1603 143.08 75.6802 140.972 74.9672 139.639C74.6882 139.05 74.3782 137.283 74.2232 135.113C73.5412 126.154 71.4951 120.17 66.659 113.102C61.7919 105.91 59.8699 100.764 59.4669 93.6647C59.3119 90.6887 59.3739 89.9447 59.9319 88.0846C61.1099 84.3025 64.241 81.0785 67.8991 79.9004C69.6351 79.3424 70.8751 79.3114 89.0106 79.3114C107.394 79.2804 108.386 79.3114 110.246 79.9004Z" fill="white" fill-opacity="0.4"/>
<path id="Vector_2" d="M75.6189 84.6125C75.2468 84.7675 74.7818 85.2635 74.5958 85.6665C74.1308 86.6896 74.1308 96.6718 74.5958 97.6638C74.9368 98.4388 76.0529 99.1208 76.8899 99.1208C77.1379 99.1208 79.835 97.8808 82.904 96.3308C86.6861 94.4397 88.5462 93.3547 88.6702 92.9207C88.7632 92.5797 88.9802 92.3007 89.1352 92.3007C89.2902 92.3007 89.5072 92.5797 89.6002 92.9207C89.7242 93.3547 91.5842 94.4397 95.3663 96.3308C98.4354 97.8808 101.132 99.1208 101.38 99.1208C102.217 99.1208 103.334 98.4388 103.675 97.6638C103.892 97.2298 104.016 94.8737 104.016 91.6807C104.016 88.4876 103.892 86.1315 103.675 85.6975C103.334 84.9225 102.217 84.2405 101.38 84.2405C101.132 84.2405 98.4354 85.4805 95.3663 87.0306C91.5842 88.9216 89.7242 90.0066 89.6002 90.4406C89.5072 90.7817 89.2902 91.0607 89.1352 91.0607C88.9802 91.0607 88.7632 90.7817 88.6702 90.4406C88.5462 90.0066 86.6861 88.9216 82.904 87.0306C79.835 85.4805 77.0759 84.2405 76.7969 84.2715C76.5179 84.2715 75.9599 84.4265 75.6189 84.6125Z" fill="white" fill-opacity="0.4"/>
<path id="Vector_3" d="M25.5517 10.4278C24.7147 11.2648 24.6527 11.5128 24.6527 13.5588C24.6527 15.6049 24.7147 15.8529 25.5517 16.6899C26.0477 17.1859 26.7608 17.5889 27.1328 17.5889C27.5048 17.5889 28.2178 17.1859 28.7138 16.6899C29.5508 15.8529 29.6128 15.6049 29.6128 13.5588C29.6128 11.5128 29.5508 11.2648 28.7138 10.4278C28.2178 9.93175 27.5048 9.52874 27.1328 9.52874C26.7608 9.52874 26.0477 9.93175 25.5517 10.4278Z" fill="white" fill-opacity="0.4"/>
<path id="Vector_4" d="M23.4443 20.1C15.5391 21.4331 8.47095 27.4782 6.05289 34.9494C5.24687 37.4914 5.49488 38.6695 7.01392 39.2895C8.53295 39.9405 9.61798 39.2585 10.393 37.1504C12.222 32.2833 15.0741 28.8422 18.9492 26.8272C30.6985 20.658 44.4628 29.0282 44.4938 42.2965V44.5596H23.2583C8.16094 44.5596 1.83679 44.6526 1.27878 44.9006C-0.42626 45.7066 -0.42626 48.3727 1.27878 49.1787C1.83679 49.4267 9.15297 49.5197 27.1334 49.5197C45.1138 49.5197 52.43 49.4267 52.988 49.1787C54.073 48.6827 54.6 47.2877 54.135 46.1406C53.67 45.0556 52.647 44.5596 50.849 44.5596H49.4539V42.6066C49.4539 38.3905 48.3689 34.2984 46.2918 30.7643C44.7728 28.1912 41.0217 24.3781 38.5417 22.9211C34.1706 20.317 28.4974 19.263 23.4443 20.1Z" fill="white" fill-opacity="0.4"/>
<path id="Vector_5" d="M79.7106 50.1707C78.5636 51.0698 78.5636 52.9298 79.7106 53.8288C81.1366 54.9449 83.2137 54.4798 83.8957 52.8988C84.8877 50.4808 81.8497 48.4967 79.7106 50.1707Z" fill="white" fill-opacity="0.4"/>
<path id="Vector_6" d="M95.428 49.8917C95.056 50.0777 94.591 50.6047 94.374 51.1008C93.382 53.5188 96.42 55.5029 98.5591 53.8288C99.1791 53.3328 99.3651 52.9298 99.3651 51.9998C99.3651 50.0157 97.3811 48.9617 95.428 49.8917Z" fill="white" fill-opacity="0.4"/>
<path id="Vector_7" d="M80.579 60.1529C79.556 61.052 79.525 62.23 80.424 64.059C83.3691 69.7942 91.4913 71.0032 96.1104 66.4151C97.5984 64.8961 98.8384 62.261 98.5594 61.145C98.2804 60.0599 97.1644 59.3779 95.8934 59.5019C95.1184 59.5639 94.7463 59.8429 94.2503 60.649C93.9093 61.238 93.1343 62.23 92.5453 62.881C90.0962 65.4231 86.1901 64.6481 84.4851 61.269C83.4621 59.3159 82.036 58.9129 80.579 60.1529Z" fill="white" fill-opacity="0.4"/>
</g>
</svg>
